# File created by Blade
# Date/Time:  Thu Jan 22 19:34:22 2015
#---------------------------------------------------------
:version 1.10
:name HOM
:units
  mass 1.0
  length 1.000000
  angle deg
:documentation
     Acclaim Skeleton File
:root
   axis xyz
   order TX TY TZ RX RY RZ
   position 0.000000 0.000000 0.000000
   orientation 0 0 0
:bonedata
   begin
      id 1
      name RightUpLeg_dum
      direction -1.000000 0.000000 0.000000
      length 4.478084
      axis 0.0 0.0 0.0 xyz
   end
   begin
      id 2
      name LeftUpLeg_dum
      direction 1.000000 0.000000 0.000000
      length 4.478084
      axis 0.0 0.0 0.0 xyz
   end
   begin
      id 3
      name Spine_dum
      direction 0.000000 1.000000 0.000000
      length 6.068208
      axis 0.0 0.0 0.0 xyz
   end
   begin
      id 4
      name RightUpLeg
      direction 0.000000 -1.000000 0.000000
      length 16.405774
      axis 0.0 0.0 0.0 xyz
      dof rx ry rz
   end
   begin
      id 5
      name RightLeg
      direction 0.000000 -1.000000 0.000000
      length 14.644143
      axis 0.0 0.0 0.0 xyz
      dof rx ry rz
   end
   begin
      id 6
      name RightFoot
      direction 0.000000 -0.258819 0.965926
      length 5.806150
      axis 15.0 0.0 0.0 xyz
      dof rx ry rz
   end
   begin
      id 7
      name RightToeBase
      direction 0.000000 0.000000 1.000000
      length 2.952750
      axis 0.0 0.0 0.0 xyz
      dof rx ry rz
   end
   begin
      id 8
      name LeftUpLeg
      direction 0.000000 -1.000000 0.000000
      length 16.405774
      axis 0.0 0.0 0.0 xyz
      dof rx ry rz
   end
   begin
      id 9
      name LeftLeg
      direction 0.000000 -1.000000 0.000000
      length 14.644143
      axis 0.0 0.0 0.0 xyz
      dof rx ry rz
   end
   begin
      id 10
      name LeftFoot
      direction 0.000000 -0.258819 0.965926
      length 5.806150
      axis 15.0 0.0 0.0 xyz
      dof rx ry rz
   end
   begin
      id 11
      name LeftToeBase
      direction 0.000000 0.000000 1.000000
      length 2.952750
      axis 0.0 0.0 0.0 xyz
      dof rx ry rz
   end
   begin
      id 12
      name Spine
      direction 0.000000 1.000000 0.000000
      length 0.000000
      axis 0.0 0.0 0.0 xyz
      dof rx ry rz
   end
   begin
      id 13
      name Spine_dum1
      direction 0.000000 1.000000 0.000000
      length 10.013923
      axis 0.0 0.0 0.0 xyz
   end
   begin
      id 14
      name Spine_dum2
      direction 0.000000 1.000000 0.000000
      length 10.013923
      axis 0.0 0.0 0.0 xyz
   end
   begin
      id 15
      name Spine_dum3
      direction 0.000000 1.000000 0.000000
      length 15.777476
      axis 0.0 0.0 0.0 xyz
   end
   begin
      id 16
      name RightShoulder
      direction -1.000000 0.000000 0.000000
      length 7.190220
      axis 0.0 0.0 90.0 xyz
      dof rx ry rz
   end
   begin
      id 17
      name RightArm
      direction -1.000000 0.000000 0.000000
      length 10.177469
      axis 0.0 0.0 90.0 xyz
      dof rx ry rz
   end
   begin
      id 18
      name RightForeArm
      direction -1.000000 0.000000 0.000000
      length 8.392114
      axis 0.0 0.0 90.0 xyz
      dof ry rz rx
   end
   begin
      id 19
      name RightHand
      direction -1.000000 0.000000 0.000000
      length 0.000000
      axis 0.0 0.0 90.0 xyz
      dof rx ry rz
   end
   begin
      id 20
      name RightHand_dum1
      direction -1.000000 0.000000 0.000000
      length 3.937000
      axis 0.0 0.0 90.0 xyz
   end
   begin
      id 21
      name RightHand_dum2
      direction 0.000000 0.000000 0.000000
      length 0.000000
      axis 0.0 0.0 90.0 xyz
   end
   begin
      id 22
      name RightHandThumb1
      direction 0.000000 0.000000 1.000000
      length 3.937000
      axis 0.0 0.0 90.0 xyz
      dof rx rz ry
   end
   begin
      id 23
      name LeftShoulder
      direction 1.000000 0.000000 0.000000
      length 7.190220
      axis 0.0 0.0 -90.0 xyz
      dof rx ry rz
   end
   begin
      id 24
      name LeftArm
      direction 1.000000 0.000000 0.000000
      length 10.177469
      axis 0.0 0.0 -90.0 xyz
      dof rx ry rz
   end
   begin
      id 25
      name LeftForeArm
      direction 1.000000 0.000000 0.000000
      length 8.392114
      axis 0.0 0.0 -90.0 xyz
      dof ry rz rx
   end
   begin
      id 26
      name LeftHand
      direction 1.000000 0.000000 0.000000
      length 0.000000
      axis 0.0 0.0 -90.0 xyz
      dof rx ry rz
   end
   begin
      id 27
      name LeftHand_dum1
      direction 1.000000 0.000000 0.000000
      length 3.937000
      axis 0.0 0.0 -90.0 xyz
   end
   begin
      id 28
      name LeftHand_dum2
      direction 0.000000 0.000000 0.000000
      length 0.000000
      axis 0.0 0.0 -90.0 xyz
   end
   begin
      id 29
      name LeftHandThumb1
      direction 0.000000 0.000000 1.000000
      length 3.937000
      axis 0.0 0.0 -90.0 xyz
      dof rx rz ry
   end
   begin
      id 30
      name Head
      direction 0.000000 1.000000 0.000000
      length 4.527550
      axis 0.0 0.0 0.0 xyz
      dof rx ry rz
   end
:hierarchy
   begin
      root RightUpLeg_dum LeftUpLeg_dum Spine_dum
      RightUpLeg_dum RightUpLeg
      LeftUpLeg_dum LeftUpLeg
      Spine_dum Spine
      RightUpLeg RightLeg
      RightLeg RightFoot
      RightFoot RightToeBase
      LeftUpLeg LeftLeg
      LeftLeg LeftFoot
      LeftFoot LeftToeBase
      Spine Spine_dum1 Spine_dum2 Spine_dum3
      Spine_dum1 RightShoulder
      Spine_dum2 LeftShoulder
      Spine_dum3 Head
      RightShoulder RightArm
      RightArm RightForeArm
      RightForeArm RightHand
      RightHand RightHand_dum1 RightHand_dum2
      RightHand_dum2 RightHandThumb1
      LeftShoulder LeftArm
      LeftArm LeftForeArm
      LeftForeArm LeftHand
      LeftHand LeftHand_dum1 LeftHand_dum2
      LeftHand_dum2 LeftHandThumb1
   end

# File created by Blade
# Date/Time:  Thu Jan 22 19:34:15 2015
# Frame Rate: 120.000 fps
#------------------------------------------------------
:FULLY-SPECIFIED
:DEGREES
568
root -13.477012 15.983633 -9.223136 32.653180 -31.388266 18.317981
RightUpLeg -124.776212 -19.750991 -3.077233
RightLeg 129.517259 -0.000000 -0.000000
RightFoot -46.700581 -5.655387 8.086270
RightToeBase 0.326843 -0.000000 -0.000000
LeftUpLeg -12.809565 43.521209 29.119144
LeftLeg 2.092600 -0.000000 -0.000000
LeftFoot -4.266199 12.566822 -47.998753
LeftToeBase 21.276954 -0.000000 -0.000000
Spine 8.677389 2.332865 8.823022
RightShoulder -3.632190 -4.688689 -14.557945
RightArm 28.915877 0.346543 65.623894
RightForeArm -2.654008 -0.000000 23.229920
RightHand 14.355968 -0.000000 -20.840664
RightHandThumb1 -24.326973 -0.000000 -32.862282
LeftShoulder -19.113646 0.554222 22.853474
LeftArm 28.252531 42.096379 -53.766853
LeftForeArm 20.901694 -0.000000 74.852981
LeftHand -1.009728 0.000000 -12.503882
LeftHandThumb1 -26.253704 0.000000 33.147579
Head -39.393416 20.339289 -18.678715
569
root -13.481968 15.959631 -9.197018 32.543199 -31.372768 18.584356
RightUpLeg -124.903201 -19.963689 -3.251778
RightLeg 129.698438 -0.000000 -0.000000
RightFoot -46.705537 -5.604588 8.031362
RightToeBase -0.231970 -0.000000 0.000000
LeftUpLeg -12.748935 43.320170 28.962766
LeftLeg 1.961247 -0.000000 -0.000000
LeftFoot -4.201450 12.584533 -49.197145
LeftToeBase 21.899767 -0.000000 -0.000000
Spine 8.836671 2.421157 9.221701
RightShoulder -3.663056 -4.561018 -14.617188
RightArm 28.818708 0.510797 65.687380
RightForeArm -3.002816 -0.000000 23.057708
RightHand 14.432636 0.000000 -22.434881
RightHandThumb1 -24.326973 -0.000000 -32.862282
LeftShoulder -19.227460 0.785275 22.801194
LeftArm 28.064688 41.780431 -53.092297
LeftForeArm 20.585624 -0.000000 75.134347
LeftHand -1.158939 -0.000000 -12.661944
LeftHandThumb1 -26.253704 0.000000 33.147579
Head -39.436742 20.376723 -18.899158
570
root -13.484389 15.934278 -9.174579 32.457557 -31.326064 18.901707
RightUpLeg -125.109880 -20.226258 -3.413587
RightLeg 129.908388 -0.000000 -0.000000
RightFoot -46.703809 -5.597074 7.983640
RightToeBase -0.395864 -0.000000 0.000000
LeftUpLeg -12.841703 43.098316 28.704937
LeftLeg 1.884700 -0.000000 -0.000000
LeftFoot -4.163609 12.690637 -50.052163
LeftToeBase 22.200373 -0.000000 -0.000000
Spine 8.920354 2.467285 9.578403
RightShoulder -3.695340 -4.486569 -14.651702
RightArm 28.740352 0.649182 65.710938
RightForeArm -3.035636 -0.000000 22.924127
RightHand 14.622911 -0.000000 -23.331375
RightHandThumb1 -24.326973 -0.000000 -32.862282
LeftShoulder -19.372624 1.019352 22.780452
LeftArm 27.863980 41.422481 -52.466655
LeftForeArm 20.111747 -0.000000 75.331607
LeftHand -1.024306 -0.000000 -12.796569
LeftHandThumb1 -26.253704 0.000000 33.147579
Head -39.473100 20.417454 -19.120500
571
root -13.483794 15.908263 -9.151341 32.317988 -31.265204 19.214498
RightUpLeg -125.248866 -20.512403 -3.592196
RightLeg 130.118937 -0.000000 -0.000000
RightFoot -46.707912 -5.515621 7.980453
RightToeBase -0.476318 -0.000000 0.000000
LeftUpLeg -12.920605 42.882148 28.479652
LeftLeg 1.879414 -0.000000 -0.000000
LeftFoot -4.152134 12.727880 -50.995142
LeftToeBase 22.149085 -0.000000 -0.000000
Spine 9.063000 2.430643 9.933657
RightShoulder -3.628003 -4.482321 -14.717395
RightArm 28.700002 0.958064 65.858996
RightForeArm -3.184323 -0.000000 22.788137
RightHand 14.955297 0.000000 -24.651929
RightHandThumb1 -24.326973 -0.000000 -32.862282
LeftShoulder -19.596190 1.416523 22.668660
LeftArm 27.849916 40.959536 -51.722320
LeftForeArm 19.984074 -0.000000 75.481150
LeftHand -1.065694 -0.000000 -12.678027
LeftHandThumb1 -26.253704 0.000000 33.147579
Head -39.514837 20.524796 -19.333380
572
root -13.484313 15.879083 -9.132221 32.190199 -31.210603 19.498482
RightUpLeg -125.384044 -20.752629 -3.774701
RightLeg 130.325414 -0.000000 -0.000000
RightFoot -46.721908 -5.512561 7.939220
RightToeBase -0.642715 -0.000000 0.000000
LeftUpLeg -13.018830 42.790375 28.254775
LeftLeg 1.885845 -0.000000 -0.000000
LeftFoot -4.067547 12.710470 -51.840535
LeftToeBase 22.168834 -0.000000 -0.000000
Spine 9.211646 2.467933 10.285866
RightShoulder -3.598290 -4.401163 -14.729471
RightArm 28.498618 1.124138 65.897684
RightForeArm -3.090962 0.000000 22.840601
RightHand 15.066743 -0.000000 -26.299439
RightHandThumb1 -24.326973 -0.000000 -32.862282
LeftShoulder -19.744776 1.645527 22.622307
LeftArm 27.569991 40.517788 -51.131836
LeftForeArm 19.750178 -0.000000 75.653587
LeftHand -0.912318 -0.000000 -12.800701
LeftHandThumb1 -26.253704 0.000000 33.147579
Head -39.542479 20.576650 -19.517153
573
root -13.487235 15.847995 -9.111133 32.016272 -31.199835 19.743481
RightUpLeg -125.448898 -20.918683 -3.978750
RightLeg 130.534307 -0.000000 -0.000000
RightFoot -46.735408 -5.499852 7.940257
RightToeBase -0.785074 -0.000000 0.000000
LeftUpLeg -13.012484 42.820112 28.087979
LeftLeg 1.894313 -0.000000 -0.000000
LeftFoot -3.914746 12.670775 -52.543031
LeftToeBase 21.831412 -0.000000 -0.000000
Spine 9.467339 2.590886 10.651162
RightShoulder -3.632234 -4.383426 -14.734610
RightArm 28.371488 1.413714 66.032452
RightForeArm -3.206086 0.000000 22.869761
RightHand 15.213070 -0.000000 -28.146181
RightHandThumb1 -24.326973 -0.000000 -32.862282
LeftShoulder -19.931494 2.043591 22.468097
LeftArm 27.585676 39.911354 -50.373453
LeftForeArm 19.461405 -0.000000 75.725402
LeftHand -0.672228 0.000000 -12.748491
LeftHandThumb1 -26.253704 0.000000 33.147579
Head -39.613255 20.555778 -19.738097
574
root -13.491315 15.815191 -9.090467 31.859692 -31.183379 19.946444
RightUpLeg -125.498692 -21.063825 -4.157326
RightLeg 130.742489 -0.000000 -0.000000
RightFoot -46.743025 -5.460749 7.960615
RightToeBase -0.967274 -0.000000 0.000000
LeftUpLeg -13.000809 42.871991 27.969646
LeftLeg 1.938429 -0.000000 -0.000000
LeftFoot -3.799693 12.594957 -53.129058
LeftToeBase 21.808706 -0.000000 -0.000000
Spine 9.723100 2.673538 11.050256
RightShoulder -3.618287 -4.307392 -14.771342
RightArm 28.191379 1.797552 66.284124
RightForeArm -3.302924 -0.000000 22.873022
RightHand 15.640775 -0.000000 -29.702942
RightHandThumb1 -24.326973 -0.000000 -32.862282
LeftShoulder -20.169290 2.371033 22.312316
LeftArm 27.488944 39.383882 -49.666277
LeftForeArm 19.294363 -0.000000 75.828997
LeftHand -0.803205 -0.000000 -12.743765
LeftHandThumb1 -26.253704 0.000000 33.147579
Head -39.699108 20.541020 -19.982270
